<svg height="512" viewBox="0 0 60 60" width="512" xmlns="http://www.w3.org/2000/svg"><g id="Page-1" fill="none" fill-rule="evenodd"><g id="008---Mathematics-Book" fill-rule="nonzero"><path id="Shape" d="m46.42 23.54-7.08 7.46-1.63 1.71-5.97 6.29h-3.67l-7.6-8-7.01-7.38c1.16-.83 4.6-3.53 11.93-4.37.4174324-.0403135.8173785.1774789 1.01.55l3.6 7.2 3.6-7.2c.1926215-.3725211.5925676-.5903135 1.01-.55 7.1.83 10.56 3.42 11.81 4.29z" fill="#ffeb3a"/><path id="Shape" d="m34.61 19.25c-.318521-.0294483-.6325283.0914945-.849.327 3.4852187.547684 6.7934427 1.9050183 9.659 3.963l-7.08 7.46-1.63 1.71-5.97 6.29h3l5.97-6.29 1.63-1.71 7.08-7.46c-1.25-.87-4.71-3.46-11.81-4.29z" fill="#fdd834"/><path id="Shape" d="m37.423 23.094c-.5003731-.2335463-1.0953361-.0173182-1.329.483l-6.094 13.058-6.094-13.058c-.2386764-.4914115-.8275519-.7003313-1.3225645-.4692161-.4950126.2311151-.7129351.8167187-.4894355 1.3152161l7 15c.1726466.3445489.5207659.566254.906.577.3837155-.009877.7303148-.2317006.9-.576l7-15c.235017-.4990149.0215945-1.0940924-.477-1.33z" fill="#ffdc00"/><path id="Shape" d="m24.96 56.89-1.78 1.6c-.3682872.3297644-.8456541.5114488-1.34.51h-13.51c-.83011072.0024408-1.57543805-.5081537-1.87298528-1.2831088s-.08545347-1.6531555.53298528-2.2068912l8.26-7.44c.3801031-.3348556.9498969-.3348556 1.33 0l.72.63 6.93 6.07.72.63c.2157798.1867194.3406012.4573904.3425163.7427348.0019151.2853443-.1192621.5576664-.3325163.7472652z" fill="#9d27b0"/><path id="Shape" d="m24.95 55.4-.72-.63-6.93-6.07-.72-.63c-.3801031-.3348556-.9498969-.3348556-1.33 0l-.823.741 6.8 5.959.72.63c.2157798.1867194.3406012.4573904.3425163.7427348.0019151.2853443-.1192621.5576664-.3325163.7472652l-1.78 1.6c-.3682872.3297644-.8456541.5114488-1.34.51h3c.4943459.0014488.9717128-.1802356 1.34-.51l1.78-1.6c.2136296-.1891689.335351-.4612425.3340104-.7465856-.0013405-.2853431-.1256128-.5562611-.3410104-.7434144z" fill="#6a1b9a"/><path id="Shape" d="m50.49 26.51-4.26 4.49-.16.17-4.07 4.28v-.95c0-1.3807119-1.1192881-2.5-2.5-2.5s-2.5 1.1192881-2.5 2.5v6.22c-1.73 1.82-2.52 2.99-4.54 3.23-.38.07-.02.05-4.6.05-1.2174337-.0255084-2.3780618-.51985-3.24-1.38l-7.6-7.99-3.44-3.63-4.15-4.37c-.66826863-.636517-.93150572-1.5894312-.68473303-2.478723.24677268-.8892919.96341165-1.5702969 1.86412333-1.7714321.9007116-.2011352 1.8389736.1103188 2.4406097.8101551l.41.43 7.01 7.38 7.6 8h3.67l5.97-6.29 1.63-1.71 7.08-7.46.45-.47c.6016361-.6998363 1.5398981-1.0112903 2.4406097-.8101551.9007117.2011352 1.6173507.8821402 1.8641233 1.7714321.2467727.8892918-.0164644 1.842206-.684733 2.478723z" fill="#a0522d"/><path id="Shape" d="m37.95 32.458-.24.252-3.71 3.909v4.1c-1.73 1.82-2.52 2.99-4.54 3.23-.2096884.0436368-.4240738.0604381-.638.05 1.2119961.082752 2.4287359.0660294 3.638-.05 2.02-.24 2.81-1.41 4.54-3.23v-6.219c-.0083425-.7902436.3665657-1.5355881 1.006-2-.019-.011-.037-.028-.056-.042z" fill="#783e22"/><path id="Shape" d="m50.63 23.23c-.8469191-1.0463069-2.3702411-1.2341803-3.446-.425.1655086.1228695.315297.2656051.446.425.7849985.9729087.7250455 2.37752-.14 3.28l-4.26 4.49-.16.17-1.653 1.738c.3743496.4462628.580618 1.0095205.583 1.592v.95l4.07-4.28.16-.17 4.26-4.49c.8650455-.90248.9249985-2.3070913.14-3.28z" fill="#783e22"/><path id="Shape" d="m42 34.5v6.89c.0294537.552672-.1291649 1.0990247-.45 1.55-.58.86-1.77 2-4.02 5.24-1.6774052 2.3992268-4.4225536 3.8259571-7.35 3.82h-1.88c-.788374.001543-1.545168.3099993-2.11.86l-1.96 1.91-6.93-6.07 1.53-1.53c.3790282-.3732815.5924538-.8830212.5924538-1.415s-.2134256-1.0417185-.5924538-1.415l-2.98-3.23c-.7247106-.7908929-1.1020429-1.8393438-1.0475367-2.9106729.0545063-1.0713291.5362992-2.0760702 1.3375367-2.7893271l.88-.78 7.6 7.99c.8619382.86015 2.0225663 1.3544916 3.24 1.38 4.58 0 4.22.02 4.6-.05 2.02-.24 2.81-1.41 4.54-3.23v-6.22c0-1.3807119 1.1192881-2.5 2.5-2.5s2.5 1.1192881 2.5 2.5z" fill="#ffe0b2"/><path id="Shape" d="m41.27 32.73c-.8778633-.8818729-2.2725158-.9788662-3.264-.227.09265.0700844.1808224.1458993.264.227.4685697.4697537.731185 1.1065057.73 1.77v6.89c.0294537.552672-.1291649 1.0990247-.45 1.55-.58.86-1.77 2-4.02 5.24-1.6774052 2.3992268-4.4225536 3.8259571-7.35 3.82h-1.88c-.788374.001543-1.545168.3099993-2.11.86l-.54.526 1.58 1.384 1.96-1.91c.564832-.5500007 1.321626-.858457 2.11-.86h1.88c2.9274464.0059571 5.6725948-1.4207732 7.35-3.82 2.25-3.24 3.44-4.38 4.02-5.24.3208351-.4509753.4794537-.997328.45-1.55v-6.89c.001185-.6634943-.2614303-1.3002463-.73-1.77z" fill="#dfc49c"/><path id="Shape" d="m48.04 36-6.49 6.94c.3208351-.4509753.4794537-.997328.45-1.55v-5.94l4.07-4.28c.7100606.0199286 1.385872.3095621 1.89.81 1.1171722 1.0945287 1.1527416 2.8818909.08 4.02z" fill="#ffe0b2"/><path id="Shape" d="m47.96 31.98c-.504128-.5004379-1.1799394-.7900714-1.89-.81l-.951 1c.9579266 1.1086757.9238289 2.7617681-.079 3.83l-3.04 3.251v2.139c.0294537.552672-.1291649 1.0990247-.45 1.55l6.49-6.94c1.0727416-1.1381091 1.0371722-2.9254713-.08-4.02z" fill="#dfc49c"/><g fill="#000"><circle id="Oval" cx="39" cy="1" r="1"/><circle id="Oval" cx="39" cy="11" r="1"/><path id="Shape" d="m18.941 53.527c-.3923789-.3789722-1.0160848-.3735524-1.4018186.0121814s-.3911536 1.0094397-.0121814 1.4018186l1.766 1.766c.3923789.3789722 1.0160848.3735524 1.4018186-.0121814s.3911536-1.0094397.0121814-1.4018186z"/><path id="Shape" d="m25.276 18.259c-6.489.742-10.056 2.9-11.715 4.06-1.3921255-1.2631634-3.5349557-1.1954926-4.84460509.1529931-1.30964935 1.3484858-1.31468947 3.4923783-.01139491 4.8470069l6.877 7.25-.105.094c-1.0023481.8912729-1.6051903 2.1474439-1.6734277 3.4870009-.0682373 1.3395569.4038364 2.6504844 1.3104277 3.6389991l3.013 3.263c.1902822.1833462.2984612.4357638.3.7.0002305.268981-.107909.5267134-.3.715l-.868.868-.008-.006c-.7611568-.6732422-1.9048432-.6732422-2.666 0l-8.266 7.439c-.92547819.8311577-1.24202804 2.1472315-.79574017 3.3083345.44628786 1.161103 1.56282466 1.9263478 2.80674017 1.9236655h13.51c.7409779-.0001387 1.4560278-.272776 2.009-.766l1.777-1.6c.4134131-.3640955.6558748-.8843802.6687885-1.4351153.0129138-.5507351-.2048952-1.0818124-.6007885-1.4648847l1.2-1.164c.3779261-.3668551.8843039-.5714159 1.411-.57h1.875c3.2541718.0056178 6.3050615-1.581831 8.168-4.25 1.1397895-1.6458959 2.364445-3.2313725 3.669-4.75.1125652-.1367962.216117-.2807665.31-.431l6.443-6.888c.8230182-.851895 1.2044068-2.0373192 1.0325342-3.2093021-.1718725-1.1719828-.8775691-2.1979849-1.9105342-2.7776979l3.317-3.493c1.2767375-1.3685198 1.2462483-3.500647-.0690986-4.8321001-1.3153469-1.3314532-3.4469452-1.3878881-4.8309014-.1278999-3.4713897-2.2639326-7.44953-3.6326959-11.579-3.984-.838949-.0972523-1.6485629.3429728-2.023 1.1l-2.707 5.407-2.7-5.407c-.3778429-.7540464-1.1858832-1.1924003-2.024-1.098zm-15.251 5.77c.2693993-.349349.6760827-.565901 1.1163182-.5944206s.87146.1337506 1.1836818.4454206l15.02 15.809c.188837.1986383.450926.3110654.725.311h3.67c.2745707.0000794.5370954-.1127411.726-.312l3.534-3.721v4.353l-1.507 1.58c-.5905526.5983968-1.3699933.9739841-2.206 1.063-.1110202.0222618-.2237944.0346435-.337.037h-4.09c-.1319686-.0033677-.2634255-.017751-.393-.043-.803698-.0898013-1.5524893-.4518465-2.122-1.026l-7.6-7.991-7.59-8c-.49734056-.522813-.55195531-1.3256499-.13-1.911zm14.275 32.114-1.776 1.6c-.187419.1688803-.4317444.2606809-.684.257h-13.51c-.41619806.0025795-.7904779-.2528986-.93970831-.6414314-.14923042-.3885329-.0422056-.8288738.26870831-1.1055686l8.262-7.431.719.63 6.93 6.069.722.618zm12.409-8.534c-1.4898832 2.1311164-3.9287379 3.3977968-6.529 3.391h-1.875c-1.0514233-.0023979-2.0616843.4084584-2.813 1.144l-1.3 1.265-2.106-1.844-3.325-2.913.774-.775c.5694161-.5642413.8885992-1.333379.886-2.135.0018887-.7798261-.3068566-1.5282996-.858-2.08l-2.978-3.227c-.5438956-.5932815-.827247-1.3798432-.786651-2.1836823.0405961-.8038391.4017506-1.5578515 1.002651-2.0933177l.158-.139 6.942 7.3c.8755771.8959623 2.0304218 1.4666827 3.274 1.618.2260655.04089.4552686.06197.685.063h4.09c.2102708-.0004979.4200865-.0195721.627-.057 1.2754148-.1508269 2.4606036-.7342447 3.358-1.653l1.79-1.881c.1766165-.1859124.2750644-.432569.275-.689v-6.22c.0001175-.3982269.1575413-.7802853.438-1.063.5993969-.5555657 1.5256031-.5555657 2.125 0 .2798163.28306.4368238.6649798.437 1.063v6.891c-.0047338.4814928-.1821609.9452873-.5 1.307-1.3492419 1.5701354-2.615951 3.2093472-3.795 4.911zm10.554-14.909c.7225094.7165363.743345 1.878011.047 2.62l-4.31 4.605v-4.076l3.437-3.619c.3122821.0802966.5974454.2425566.826.47zm1.48-9.4c.5871356.0218497 1.1067826.3862491 1.3273699.9308103.2205872.5445612.1010391 1.1678816-.3053699 1.5921897l-7.014 7.386c-.1739515-.4433942-.4370451-.8463733-.773-1.184-.406737-.3927373-.9073226-.674704-1.454-.819l7.07-7.444c.2961996-.3158029.7166305-.4848534 1.149-.462zm-18.743 4.7c.379026.0001766.7255754-.2139484.895-.553l3.6-7.2c3.687843.3181786 7.2484461 1.5026479 10.392 3.457l-13.576 14.296h-2.811l-13.518-14.228c3.1674175-2.0172643 6.7813873-3.2266137 10.525-3.522l3.6 7.2c.1699375.3372423.5153611.5499892.893.55z"/><path id="Shape" d="m18 7h4v4c0 .5522847.4477153 1 1 1s1-.4477153 1-1v-4h4c.5522847 0 1-.44771525 1-1s-.4477153-1-1-1h-4v-4c0-.55228475-.4477153-1-1-1s-1 .44771525-1 1v4h-4c-.5522847 0-1 .44771525-1 1s.4477153 1 1 1z"/><path id="Shape" d="m34 7h10c.5522847 0 1-.44771525 1-1s-.4477153-1-1-1h-10c-.5522847 0-1 .44771525-1 1s.4477153 1 1 1z"/><path id="Shape" d="m59.705 6.219c-.1875683-.18777704-.4420908-.29328666-.7075-.29328666s-.5199317.10550962-.7075.29328666l-4.29 4.326-4.29-4.321c-.3890846-.39212213-1.0223778-.39458455-1.4145-.00549996-.3921221.38908459-.3945846 1.02237778-.0055 1.41449996l4.3 4.331-4.3 4.336c-.3893607.3921222-.3871222 1.0256393.005 1.415s1.0256393.3871222 1.415-.005l4.29-4.326 4.29 4.316c.2518722.2536586.619937.3536765.9655479.262378.3456109-.0912984.6162614-.3600429.71-.705.0937387-.344957-.0036757-.7137194-.2555479-.967378l-4.3-4.331 4.3-4.331c.3856811-.39129262.3834485-1.02045447-.005-1.409z"/><path id="Shape" d="m.076 17.383c.15489634.3735907.51957089.6171018.924.617h10c.5522847 0 1-.4477153 1-1s-.4477153-1-1-1h-7.586l3.293-3.293c.39038194-.3904999.39038194-1.0235001 0-1.414l-3.293-3.293h7.586c.5522847 0 1-.44771525 1-1s-.4477153-1-1-1h-10c-.4043959.00008635-.76893405.2437275-.92367798.61734544s-.06922994.80366031.21667798 1.08965456l4.293 4.293-4.293 4.293c-.28616527.2859855-.37181793.7162224-.217 1.09z"/></g></g></g></svg>